<svg width="128" height="128" viewBox="0 0 128 128" xmlns="http://www.w3.org/2000/svg">
  <defs>
    <radialGradient id="bg128" cx="50%" cy="50%" r="50%">
      <stop offset="0%" style="stop-color:#667eea"/>
      <stop offset="100%" style="stop-color:#764ba2"/>
    </radialGradient>
  </defs>
  <circle cx="64" cy="64" r="48" fill="url(#bg128)" stroke="white" stroke-width="3"/>
  <circle cx="64" cy="56" r="18" fill="#FF4500"/>
  <circle cx="56" cy="48" r="4" fill="white"/>
  <circle cx="72" cy="48" r="4" fill="white"/>
  <rect x="60" y="8" width="8" height="8" fill="#FFD700" transform="rotate(45 64 12)"/>
  <rect x="92" y="24" width="6.4" height="6.4" fill="#FFD700" transform="rotate(45 95.2 27.2)"/>
  <rect x="32" y="72" width="4.8" height="4.8" fill="#FFD700" transform="rotate(45 34.4 74.4)"/>
  <rect x="96" y="80" width="5.3" height="5.3" fill="#FFD700" transform="rotate(45 98.65 82.65)"/>
  <rect x="16" y="40" width="4" height="4" fill="#FFD700" transform="rotate(45 18 42)"/>
  <rect x="104" y="96" width="3" height="3" fill="#FFD700" transform="rotate(45 105.5 97.5)"/>
  <rect x="8" y="88" width="3.5" height="3.5" fill="#FFD700" transform="rotate(45 9.75 89.75)"/>
</svg>
